<?xml version="1.0" standalone="no"?><!DOCTYPE svg PUBLIC "-//W3C//DTD SVG 1.1//EN" "http://www.w3.org/Graphics/SVG/1.1/DTD/svg11.dtd"><svg t="1751616795318" class="icon" viewBox="0 0 1170 1024" version="1.1" xmlns="http://www.w3.org/2000/svg" p-id="3804" xmlns:xlink="http://www.w3.org/1999/xlink" width="228.515625" height="200"><path d="M968.508709 874.569143c9.654857 20.260571 14.628571 53.248 13.897142 90.112 0 4.388571 0.438857 8.630857-1.682285 12.141714a10.678857 10.678857 0 0 1-8.850286 5.558857H10.776137c-3.510857 0-6.802286-2.121143-8.923428-5.558857-2.194286-3.510857-1.755429-7.899429-1.755429-12.141714-0.219429-32.914286 2.779429-61.513143 20.041143-98.377143 58.221714-124.123429 443.684571-136.850286 325.778286-310.857143C274.456137 467.090286 238.68928 403.748571 238.68928 309.394286 238.68928 138.678857 352.499566 0 492.056137 0c139.629714 0 253.220571 138.678857 253.220572 309.394286 0 94.354286-58.514286 182.491429-114.102858 247.734857-169.472 197.485714 275.456 187.757714 337.334858 317.44zM1138.565851 468.114286a31.817143 31.817143 0 1 1 0 63.707428h-127.414857v127.414857a31.890286 31.890286 0 0 1-63.634285 0V531.748571H820.028709a31.890286 31.890286 0 0 1 0-63.634285h127.341714V340.699429a31.817143 31.817143 0 1 1 63.707428 0V468.114286h127.414858z" fill="#ffffff" p-id="3805"></path></svg>