<?xml version="1.0" standalone="no"?><!DOCTYPE svg PUBLIC "-//W3C//DTD SVG 1.1//EN" "http://www.w3.org/Graphics/SVG/1.1/DTD/svg11.dtd"><svg t="1751704839454" class="icon" viewBox="0 0 1024 1024" version="1.1" xmlns="http://www.w3.org/2000/svg" p-id="21019" xmlns:xlink="http://www.w3.org/1999/xlink" width="200" height="200"><path d="M515.57 978.4c-61.75 0-121.66-12.1-178.09-35.97C283 919.39 234.07 886.4 192.07 844.4c-42.01-42.01-74.99-90.93-98.03-145.41-23.87-56.43-35.97-116.34-35.97-178.09s12.1-121.66 35.97-178.09c23.04-54.48 56.03-103.41 98.03-145.41 42-42.01 90.93-74.99 145.41-98.03C393.9 75.5 453.82 63.4 515.57 63.4s121.66 12.1 178.09 35.97c54.48 23.04 103.41 56.03 145.41 98.03s74.99 90.93 98.03 145.41c23.86 56.42 35.97 116.34 35.97 178.09s-12.1 121.66-35.97 178.09c-23.04 54.48-56.03 103.41-98.03 145.41-42.01 42-90.93 74.99-145.41 98.03-56.43 23.86-116.34 35.97-178.09 35.97z m0-848.29c-52.77 0-103.94 10.33-152.1 30.7-46.53 19.68-88.33 47.86-124.23 83.76s-64.08 77.7-83.76 124.23c-20.37 48.16-30.7 99.33-30.7 152.1s10.33 103.94 30.7 152.1c19.68 46.53 47.86 88.32 83.76 124.22s77.7 64.08 124.23 83.76c48.16 20.37 99.33 30.7 152.1 30.7 52.77 0 103.94-10.33 152.1-30.7C714.2 861.3 756 833.12 791.9 797.22s64.08-77.7 83.76-124.23c20.37-48.16 30.7-99.33 30.7-152.1s-10.33-103.94-30.7-152.1c-19.68-46.53-47.86-88.33-83.76-124.23s-77.7-64.08-124.23-83.76c-48.16-20.36-99.33-30.69-152.1-30.69z" fill="#ec8e82" p-id="21020"></path><path d="M735.8 422.48c-12.09-28.6-29.4-54.27-51.45-76.31-22.04-22.04-47.72-39.35-76.31-51.45-29.62-12.53-61.07-18.88-93.47-18.88s-63.85 6.35-93.47 18.88c-28.6 12.1-54.27 29.4-76.31 51.45-22.04 22.04-39.35 47.72-51.45 76.31-12.53 29.62-18.88 61.07-18.88 93.47s6.35 63.85 18.88 93.47c12.09 28.59 29.4 54.27 51.45 76.31 22.04 22.04 47.72 39.35 76.31 51.45 29.62 12.53 61.07 18.88 93.47 18.88s63.85-6.35 93.47-18.88c28.59-12.09 54.27-29.4 76.31-51.45 22.04-22.04 39.35-47.72 51.45-76.31 12.53-29.62 18.88-61.07 18.88-93.47s-6.35-63.85-18.88-93.47z m-40.24 93.47c0 24.45-4.78 48.15-14.21 70.44-9.12 21.55-22.17 40.91-38.8 57.54-16.63 16.63-35.99 29.69-57.54 38.8-22.3 9.43-46 14.21-70.44 14.21-24.45 0-48.15-4.78-70.44-14.21-21.55-9.11-40.91-22.17-57.54-38.8-16.63-16.63-29.69-35.99-38.8-57.54-9.43-22.3-14.21-46-14.21-70.44 0-24.45 4.78-48.15 14.21-70.44 9.11-21.55 22.17-40.91 38.8-57.54s35.99-29.69 57.54-38.8c22.3-9.43 46-14.21 70.44-14.21 24.45 0 48.15 4.78 70.44 14.21 21.55 9.11 40.91 22.17 57.54 38.8 16.63 16.63 29.69 35.99 38.8 57.54 9.43 22.29 14.21 45.99 14.21 70.44z" fill="#ec8e82" p-id="21021"></path></svg>