<?xml version="1.0" standalone="no"?><!DOCTYPE svg PUBLIC "-//W3C//DTD SVG 1.1//EN" "http://www.w3.org/Graphics/SVG/1.1/DTD/svg11.dtd"><svg t="1751616647340" class="icon" viewBox="0 0 1024 1024" version="1.1" xmlns="http://www.w3.org/2000/svg" p-id="2660" xmlns:xlink="http://www.w3.org/1999/xlink" width="200" height="200"><path d="M688.128461 448a16.04608 16.04608 0 0 1 16 16v32a16.04608 16.04608 0 0 1-16 16H544.128461v144a16.04608 16.04608 0 0 1-16 16h-32a16.04608 16.04608 0 0 1-16-16V512H336.128461a16.04608 16.04608 0 0 1-16-16v-32a16.04608 16.04608 0 0 1 16-16H480.128461V304a16.04608 16.04608 0 0 1 16-16h32a16.04608 16.04608 0 0 1 16 16V448h144zM512.128461 64c282.79808 0 512 186.19904 512 416S794.926541 896 512.128461 896c-65.60256 0-128-10.39872-185.79968-28.60032C268.129741 908.60032 171.131341 960 48.128461 960c-19.2 0-36.59776-11.40224-44.20096-28.99968s-3.99872-38.00064 9.20064-51.99872c0.9984-0.79872 63.0016-67.59936 92.8-146.40128C39.926221 662.4 0.128461 575.20128 0.128461 480 0.128461 250.19904 229.330381 64 512.128461 64z m0 768c246.99904 0 448-157.99808 448-352S759.127501 128 512.128461 128 64.128461 285.99808 64.128461 480c0 75.19744 30.60224 147.39968 88.40192 208.59904l27.40224 29.19936-14.20288 37.39648c-22.00064 58.39872-57.6 108.99968-81.60256 139.20256 88.19712-8.6016 159.20128-46.60224 205.19936-79.20128l25.99936-18.39616L345.728461 806.4c53.80096 16.9984 109.80352 25.6 166.4 25.6z" p-id="2661"></path></svg>