<?xml version="1.0" standalone="no"?><!DOCTYPE svg PUBLIC "-//W3C//DTD SVG 1.1//EN" "http://www.w3.org/Graphics/SVG/1.1/DTD/svg11.dtd"><svg t="1745478338440" class="icon" viewBox="0 0 1024 1024" version="1.1" xmlns="http://www.w3.org/2000/svg" p-id="3530" xmlns:xlink="http://www.w3.org/1999/xlink" width="200" height="200"><path d="M512 128C256.144 128 48 283.76 48 475.2c0 98.016 54.816 190.784 150.976 256.464l-74.448 140.848c-3.216 6.096-2.176 13.584 2.592 18.544C130.208 894.304 134.4 896 138.672 896c2.32 0 4.656-0.496 6.848-1.552l183.072-86.832c16.928 1.68 32.72 3.36 47.664 4.96C427.984 818.064 468.816 822.4 512 822.4c255.84 0 464-155.744 464-347.2C976 283.76 767.84 128 512 128zM512 790.4c-41.488 0-81.584-4.272-132.336-9.664-16.32-1.728-33.632-3.568-52.336-5.408-2.864-0.304-5.792 0.224-8.416 1.472l-143.584 68.096 58.736-111.104c3.888-7.376 1.472-16.512-5.568-20.992C134.128 652.768 80 566.176 80 475.2 80 301.392 273.792 160 512 160s432 141.392 432 315.2C944 648.992 750.208 790.4 512 790.4z" p-id="3531"></path><path d="M320 464m-32 0a2 2 0 1 0 64 0 2 2 0 1 0-64 0Z" p-id="3532"></path><path d="M512 464m-32 0a2 2 0 1 0 64 0 2 2 0 1 0-64 0Z" p-id="3533"></path><path d="M704 464m-32 0a2 2 0 1 0 64 0 2 2 0 1 0-64 0Z" p-id="3534"></path></svg>