<?xml version="1.0" standalone="no"?><!DOCTYPE svg PUBLIC "-//W3C//DTD SVG 1.1//EN" "http://www.w3.org/Graphics/SVG/1.1/DTD/svg11.dtd"><svg t="1751704590900" class="icon" viewBox="0 0 1024 1024" version="1.1" xmlns="http://www.w3.org/2000/svg" p-id="19710" xmlns:xlink="http://www.w3.org/1999/xlink" width="200" height="200"><path d="M809.9328 949.6064H213.8624c-64.1024 0-116.224-52.1216-116.224-116.224V354.9184c0-64.1024 52.1216-116.224 116.224-116.224H809.984c64.1024 0 116.224 52.1216 116.224 116.224v478.464c-0.0512 64.0512-52.1728 116.224-116.2752 116.224zM213.8624 310.3744c-24.576 0-44.544 19.968-44.544 44.544v478.464c0 24.576 19.968 44.544 44.544 44.544H809.984c24.576 0 44.544-19.968 44.544-44.544V354.9184c0-24.576-19.968-44.544-44.544-44.544H213.8624z" fill="#ec8e82" p-id="19711"></path><path d="M683.1616 458.752c-19.8144 0-35.84-16.0256-35.84-35.84V273.8688c0-74.2912-60.4672-134.7584-134.7584-134.7584S377.8048 199.5776 377.8048 273.8688V422.912c0 19.8144-16.0256 35.84-35.84 35.84s-35.84-16.0256-35.84-35.84V273.8688c0-113.8176 92.6208-206.4384 206.4384-206.4384s206.4384 92.6208 206.4384 206.4384V422.912c0 19.7632-16.0768 35.84-35.84 35.84z" fill="#ec8e82" p-id="19712"></path></svg>