<?xml version="1.0" standalone="no"?><!DOCTYPE svg PUBLIC "-//W3C//DTD SVG 1.1//EN" "http://www.w3.org/Graphics/SVG/1.1/DTD/svg11.dtd"><svg t="1751617931946" class="icon" viewBox="0 0 1024 1024" version="1.1" xmlns="http://www.w3.org/2000/svg" p-id="3214" xmlns:xlink="http://www.w3.org/1999/xlink" width="200" height="200"><path d="M908.8 537.6h-793.6c-20.48 0-38.4-17.92-38.4-38.4S94.72 460.8 115.2 460.8h793.6c20.48 0 38.4 17.92 38.4 38.4s-17.92 38.4-38.4 38.4zM128 422.4c-20.48 0-38.4-17.92-38.4-38.4V230.4C89.6 153.6 153.6 89.6 230.4 89.6h151.04c20.48 0 38.4 17.92 38.4 38.4s-17.92 38.4-38.4 38.4H230.4C194.56 166.4 166.4 194.56 166.4 230.4v153.6c0 20.48-17.92 38.4-38.4 38.4zM384 934.4H230.4c-76.8 0-140.8-64-140.8-140.8v-153.6c0-20.48 17.92-38.4 38.4-38.4s38.4 17.92 38.4 38.4v153.6c0 35.84 28.16 64 64 64h153.6c20.48 0 38.4 17.92 38.4 38.4s-15.36 38.4-38.4 38.4zM793.6 934.4h-156.16c-20.48 0-38.4-17.92-38.4-38.4s17.92-38.4 38.4-38.4H793.6c35.84 0 64-28.16 64-64v-171.52c0-20.48 17.92-38.4 38.4-38.4s38.4 17.92 38.4 38.4V793.6c0 76.8-64 140.8-140.8 140.8zM896 399.36c-20.48 0-38.4-17.92-38.4-38.4V230.4c0-35.84-28.16-64-64-64h-156.16c-20.48 0-38.4-17.92-38.4-38.4s17.92-38.4 38.4-38.4H793.6c76.8 0 140.8 64 140.8 140.8v130.56c0 23.04-17.92 38.4-38.4 38.4z" fill="#333333" p-id="3215"></path></svg>